<?xml version="1.0" encoding="iso-8859-1"?>
<!-- Generator: Adobe Illustrator 16.0.0, SVG Export Plug-In . SVG Version: 6.00 Build 0)  -->
<!DOCTYPE svg PUBLIC "-//W3C//DTD SVG 1.1//EN" "http://www.w3.org/Graphics/SVG/1.1/DTD/svg11.dtd">
<svg xmlns="http://www.w3.org/2000/svg" xmlns:xlink="http://www.w3.org/1999/xlink" version="1.1" id="Capa_1" x="0px" y="0px" width="512px" height="512px" viewBox="0 0 40 40" style="enable-background:new 0 0 40 40;" xml:space="preserve">
<g>
	<path d="M16.189,23.437H19v7.729C17.632,30.193,16.377,27.316,16.189,23.437z M10.964,23.437c0.345,3.135,2.291,5.787,4.998,7.137   c-1.001-1.789-1.647-4.271-1.771-7.137H10.964z M16.189,21.437H19v-7.729C17.632,14.683,16.377,17.56,16.189,21.437z    M10.964,21.437h3.228c0.123-2.862,0.771-5.347,1.771-7.136C13.255,15.65,11.309,18.302,10.964,21.437z M21,31.168   c1.368-0.976,2.623-3.853,2.811-7.729H21V31.168z M24.038,14.301c1.001,1.789,1.647,4.272,1.771,7.136h3.229   C28.691,18.302,26.745,15.65,24.038,14.301z M40,8.718v22.563c0,2.762-2.238,5-5,5H5c-2.762,0-5-2.238-5-5v-18.75   c0-2.761,2.238-5,5-5h17.578c0.533-2.188,2.506-3.813,4.857-3.813h7.562C37.762,3.718,40,5.958,40,8.718z M31.094,22.437   c0-6.117-4.977-11.094-11.094-11.094S8.906,16.32,8.906,22.437c0,6.116,4.977,11.096,11.094,11.096S31.094,28.556,31.094,22.437z    M21,13.708v7.729h2.811C23.623,17.56,22.368,14.683,21,13.708z M24.038,30.573c2.707-1.349,4.653-4,4.998-7.136h-3.228   C25.688,26.301,25.039,28.784,24.038,30.573z" fill="#91DC5A"/>
</g>
<g>
</g>
<g>
</g>
<g>
</g>
<g>
</g>
<g>
</g>
<g>
</g>
<g>
</g>
<g>
</g>
<g>
</g>
<g>
</g>
<g>
</g>
<g>
</g>
<g>
</g>
<g>
</g>
<g>
</g>
</svg>
